<svg xmlns="http://www.w3.org/2000/svg" width="375" viewBox="0 0 375 375" height="375" version="1.0"><defs><clipPath id="a"><path d="M 137 54.40625 L 247 54.40625 L 247 170 L 137 170 Z M 137 54.40625"/></clipPath><clipPath id="b"><path d="M 50.65625 122 L 161 122 L 161 217 L 50.65625 217 Z M 50.65625 122"/></clipPath><clipPath id="c"><path d="M 175 210 L 286 210 L 286 320.65625 L 175 320.65625 Z M 175 210"/></clipPath></defs><g clip-path="url(#a)"><path fill="#F8BF8B" d="M 191.261719 54.578125 C 189.90625 54.644531 188.53125 55.332031 187.589844 56.601562 C 186.742188 57.746094 186.589844 58.296875 186.535156 60.371094 C 186.507812 61.351562 186.457031 63.117188 186.417969 64.289062 C 186.378906 65.464844 186.414062 66.90625 186.492188 67.496094 C 186.570312 68.082031 186.597656 69.078125 186.554688 69.699219 C 186.492188 70.664062 186.828125 73.722656 187.035156 74.121094 C 187.066406 74.179688 187.0625 75.375 187.035156 76.773438 C 186.992188 78.917969 187.03125 79.4375 187.257812 80.117188 C 187.582031 81.074219 187.421875 84.476562 186.949219 86.75 C 186.722656 87.855469 186.691406 88.304688 186.78125 89.882812 C 186.835938 90.894531 186.832031 93 186.769531 94.566406 C 186.652344 97.414062 186.648438 97.421875 187.164062 98.453125 C 188.058594 100.253906 187.992188 100.1875 189.964844 100.507812 C 190.910156 100.664062 191.6875 100.804688 191.699219 100.816406 C 191.796875 100.910156 192.203125 100.359375 192.222656 100.105469 C 192.238281 99.878906 192.542969 99.589844 193.277344 99.105469 C 194.828125 98.070312 194.941406 97.746094 195.234375 93.660156 C 195.464844 90.460938 195.464844 90.457031 195.128906 89.773438 C 194.890625 89.285156 194.820312 88.992188 194.90625 88.730469 C 194.972656 88.519531 194.953125 88.128906 194.839844 87.785156 C 194.699219 87.332031 194.683594 86.695312 194.800781 85.023438 C 194.9375 82.976562 194.980469 82.808594 195.351562 82.203125 C 195.742188 81.570312 195.746094 81.507812 195.96875 78.1875 C 196.09375 76.335938 196.207031 73.667969 196.226562 72.257812 C 196.242188 70.84375 196.296875 67.832031 196.34375 65.558594 C 196.457031 59.875 196.164062 58.058594 194.832031 56.238281 C 193.964844 55.058594 192.621094 54.511719 191.261719 54.578125 Z M 163.519531 63.160156 C 162.800781 63.140625 162.074219 63.277344 161.59375 63.554688 C 159.980469 64.496094 159.4375 66.378906 159.921875 69.382812 C 160.039062 70.117188 160.144531 71.433594 160.15625 72.300781 C 160.175781 74.066406 160.265625 74.726562 160.667969 76.152344 C 160.921875 77.074219 161.136719 77.632812 161.964844 79.5625 C 162.140625 79.964844 162.695312 81.609375 163.199219 83.214844 C 163.707031 84.820312 164.222656 86.457031 164.351562 86.855469 C 164.480469 87.257812 164.777344 88.492188 165.023438 89.605469 C 165.507812 91.832031 166.816406 95.203125 167.8125 96.804688 C 168.570312 98.023438 168.636719 98.191406 169.175781 100.191406 C 170.261719 104.234375 170.480469 104.714844 171.625 105.738281 C 171.980469 106.058594 172.414062 106.335938 172.582031 106.347656 C 173.296875 106.398438 175.359375 103.515625 175.105469 102.820312 C 174.953125 102.398438 174.332031 99.925781 174.074219 98.722656 C 173.933594 98.066406 173.9375 97.816406 174.085938 97.539062 C 174.316406 97.105469 174.132812 95.898438 173.550781 94.023438 C 172.652344 91.128906 171.941406 87.851562 172.0625 87.199219 C 172.167969 86.636719 172.050781 85.316406 171.753906 83.671875 C 171.699219 83.351562 171.378906 82.46875 171.050781 81.710938 C 170.457031 80.335938 170.46875 80.332031 170.6875 78.378906 C 171.046875 75.25 170.46875 71.46875 169.09375 67.707031 C 168.574219 66.292969 167.246094 64.820312 165.429688 63.660156 C 164.949219 63.355469 164.242188 63.179688 163.523438 63.160156 Z M 217.128906 66.984375 C 215.191406 67.054688 213.964844 67.921875 212.835938 69.925781 C 212.179688 71.089844 212.171875 71.085938 211.996094 73.429688 C 211.828125 75.683594 211.671875 76.476562 211.175781 77.515625 C 210.902344 78.089844 210.46875 80.371094 210.535156 80.914062 C 210.5625 81.125 210.484375 81.75 210.355469 82.320312 C 209.441406 86.371094 209.070312 88.65625 208.875 91.480469 C 208.675781 94.394531 208.675781 94.402344 207.585938 95.207031 C 206.304688 96.152344 205.328125 97.203125 204.96875 98.050781 C 204.824219 98.382812 204.628906 98.757812 204.519531 98.871094 C 203.875 99.539062 202.753906 102.894531 201.910156 106.6875 C 201.695312 107.652344 201.480469 108.507812 201.441406 108.59375 C 201.398438 108.6875 200.828125 108.746094 199.992188 108.730469 C 198.828125 108.710938 198.445312 108.75 197.597656 109.074219 C 196.59375 109.453125 196.597656 109.464844 195.851562 108.933594 C 194.34375 107.859375 193.6875 107.652344 190.984375 107.441406 C 188.007812 107.214844 187.367188 107.355469 185.925781 108.570312 C 184.417969 109.84375 183.945312 110.820312 183.785156 112.917969 C 183.714844 113.855469 183.570312 114.789062 183.464844 115.003906 C 183.359375 115.21875 183.273438 115.519531 183.261719 115.6875 C 183.234375 116.136719 182.789062 116.488281 182.292969 116.453125 C 181.9375 116.425781 181.695312 116.214844 180.953125 115.335938 C 179.125 113.164062 177.902344 113.074219 175.488281 114.941406 C 174.71875 115.535156 174.242188 115.792969 173.65625 115.921875 C 172.542969 116.160156 171.953125 116.398438 171.761719 116.707031 C 171.671875 116.855469 171.527344 116.980469 171.433594 116.972656 C 171.230469 116.960938 170.277344 117.921875 169.792969 118.636719 C 169.414062 119.195312 169.40625 119.191406 168.8125 118.839844 C 168.046875 118.382812 166.097656 118.210938 165.011719 118.507812 C 163.410156 118.945312 161.875 120.136719 161.058594 121.585938 C 160.847656 121.964844 160.453125 122.585938 160.1875 122.960938 C 159.328125 124.164062 159.234375 124.535156 159.046875 127.164062 C 158.707031 131.949219 158.703125 133.515625 159.058594 134.398438 C 159.355469 135.140625 160.261719 136.167969 160.644531 136.195312 C 160.972656 136.21875 161.226562 136.765625 161.507812 138.101562 C 161.867188 139.820312 162.496094 141.210938 163.148438 141.746094 C 163.304688 141.875 163.570312 142.335938 163.730469 142.769531 C 163.894531 143.199219 164.28125 143.855469 164.605469 144.226562 C 165.046875 144.730469 165.183594 145.007812 165.160156 145.335938 C 165.105469 146.144531 165.34375 147.300781 165.691406 147.902344 C 166.019531 148.464844 166.03125 148.585938 165.957031 150.476562 C 165.875 152.65625 165.984375 153.132812 166.84375 154.664062 C 167.230469 155.359375 167.269531 155.570312 167.351562 157.496094 C 167.523438 161.441406 167.566406 162 167.789062 162.800781 C 168.0625 163.785156 168.792969 164.957031 170.195312 166.644531 C 171.59375 168.324219 172.304688 168.742188 174.679688 169.210938 C 175.625 169.394531 176.589844 169.582031 176.820312 169.625 C 179.703125 170.191406 181.53125 169.871094 183.921875 168.390625 C 185.195312 167.601562 185.9375 167.46875 189.164062 167.441406 C 190.210938 167.433594 191.835938 167.347656 192.773438 167.25 C 194.773438 167.042969 196.515625 166.878906 197.832031 166.769531 C 198.722656 166.699219 198.960938 166.644531 200.027344 166.269531 C 200.265625 166.1875 200.992188 166.027344 201.632812 165.910156 C 203.328125 165.597656 205.015625 164.964844 205.808594 164.355469 C 206.1875 164.058594 206.847656 163.609375 207.277344 163.363281 C 207.707031 163.117188 208.214844 162.746094 208.394531 162.542969 C 208.808594 162.082031 209.246094 161.867188 209.726562 161.894531 C 210.253906 161.925781 212.5625 160.882812 213.273438 160.285156 C 213.601562 160.011719 214.117188 159.6875 214.433594 159.582031 C 214.75 159.476562 215.15625 159.277344 215.328125 159.136719 C 215.5 158.992188 215.953125 158.785156 216.339844 158.679688 C 216.730469 158.570312 217.292969 158.320312 217.585938 158.125 C 217.878906 157.929688 218.203125 157.777344 218.3125 157.785156 C 218.417969 157.789062 218.644531 157.695312 218.800781 157.589844 C 218.957031 157.488281 219.160156 157.414062 219.257812 157.421875 C 219.355469 157.429688 219.675781 157.289062 219.972656 157.113281 C 220.429688 156.84375 220.988281 156.683594 222.761719 156.304688 C 223.117188 156.226562 224.601562 154.917969 225.160156 154.195312 C 225.652344 153.550781 227.167969 152.183594 228.949219 150.753906 C 229.996094 149.917969 231.003906 148.617188 231.269531 147.75 C 231.785156 146.082031 232.53125 145.285156 233.65625 145.226562 C 235.105469 145.152344 235.902344 144.699219 236.628906 143.542969 C 236.78125 143.300781 237.050781 143.117188 237.296875 143.078125 C 238.320312 142.898438 240.953125 141.28125 242.082031 140.136719 C 242.945312 139.257812 243.957031 137.851562 244.421875 136.898438 C 246.617188 132.421875 246.898438 131.421875 246.4375 129.636719 C 245.664062 126.648438 242.945312 124.988281 239.8125 125.589844 C 238.492188 125.84375 237.476562 126.457031 234.464844 128.847656 C 233.90625 129.292969 233.367188 129.703125 233.261719 129.753906 C 232.796875 129.980469 231.003906 132.058594 230.429688 133.042969 C 229.875 133.996094 229.164062 134.710938 228.800781 134.683594 C 228.640625 134.671875 227.035156 135.414062 226.328125 135.824219 C 226.011719 136.007812 225.398438 136.199219 224.957031 136.261719 C 224.0625 136.382812 223.386719 136.628906 223.101562 136.929688 C 223 137.039062 222.835938 137.121094 222.730469 137.113281 C 222.625 137.105469 222.453125 137.238281 222.347656 137.390625 C 222.238281 137.542969 221.800781 137.789062 221.386719 137.953125 C 220.972656 138.117188 220.605469 138.3125 220.558594 138.378906 C 220.507812 138.449219 220.148438 138.625 219.769531 138.773438 C 219.390625 138.921875 218.90625 139.191406 218.683594 139.382812 C 217.824219 140.109375 217.566406 140.285156 216.9375 140.550781 C 216.578125 140.703125 216.207031 140.953125 216.09375 141.09375 C 215.984375 141.238281 215.792969 141.347656 215.691406 141.339844 C 215.441406 141.324219 214.1875 140.324219 213.613281 139.691406 C 213.363281 139.410156 212.894531 139.035156 212.582031 138.847656 C 212.195312 138.617188 211.921875 138.308594 211.761719 137.921875 C 211.628906 137.605469 211.210938 137.050781 210.835938 136.6875 C 210.457031 136.320312 209.648438 135.457031 209.035156 134.757812 C 208.421875 134.0625 207.660156 133.269531 207.339844 133 C 206.660156 132.429688 206.601562 132.75 207.90625 129.414062 C 208.90625 126.851562 209.457031 125.054688 209.726562 123.363281 C 209.851562 122.582031 210.007812 122.117188 210.34375 121.597656 C 210.898438 120.738281 211.210938 119.296875 211.164062 117.75 C 211.132812 116.683594 211.300781 115.855469 211.71875 115.003906 C 212.53125 113.351562 212.796875 111.875 212.496094 110.710938 C 212.257812 109.789062 212.253906 109.777344 213.144531 107.550781 C 213.757812 106.019531 214.171875 105.199219 214.464844 104.898438 C 214.992188 104.359375 215.125 103.9375 215.082031 103.046875 C 215.046875 102.3125 214.59375 101.050781 214.242188 100.710938 C 214.007812 100.484375 214.03125 99.472656 214.285156 98.765625 C 214.371094 98.523438 214.792969 97.917969 215.222656 97.433594 C 215.648438 96.945312 215.996094 96.519531 216 96.484375 C 216 96.449219 216.21875 96.027344 216.476562 95.546875 C 216.738281 95.070312 217.128906 94.160156 217.339844 93.511719 C 217.550781 92.867188 218.023438 91.582031 218.394531 90.660156 C 219.320312 88.359375 220.484375 85.242188 221.070312 83.480469 C 221.335938 82.675781 221.914062 81.25 222.347656 80.296875 C 223.230469 78.363281 223.535156 77.121094 223.6875 74.910156 C 223.917969 71.5625 222.84375 69.148438 220.472656 67.679688 C 219.578125 67.125 219.492188 67.113281 218 67.007812 C 217.695312 66.984375 217.40625 66.976562 217.128906 66.984375 Z M 139.367188 99.082031 C 139.222656 99.078125 139.0625 99.164062 138.738281 99.390625 C 138.046875 99.878906 137.765625 100.617188 137.652344 102.289062 C 137.496094 104.5625 138.046875 105.398438 140.589844 106.816406 C 140.703125 106.875 141.027344 107.382812 141.3125 107.941406 C 142.003906 109.289062 143.929688 111.597656 146.851562 114.554688 C 147.988281 115.707031 150.207031 118.9375 150.460938 119.808594 C 150.671875 120.523438 151.324219 121.300781 152.039062 121.691406 C 152.636719 122.019531 154.121094 122.007812 154.945312 121.660156 C 156.519531 120.996094 157.695312 118.394531 157.714844 115.527344 C 157.734375 112.746094 156.460938 110.65625 153.507812 108.65625 C 152.765625 108.15625 152.035156 107.625 151.890625 107.476562 C 151.390625 106.960938 149.605469 105.683594 148.640625 105.152344 C 148.109375 104.859375 147.480469 104.417969 147.234375 104.171875 C 146.988281 103.929688 146.550781 103.570312 146.253906 103.363281 C 145.960938 103.160156 145.589844 102.871094 145.445312 102.726562 C 145.300781 102.578125 144.699219 102.15625 144.105469 101.789062 C 142.558594 100.824219 142.3125 100.578125 142.1875 99.933594 C 142.046875 99.203125 142.027344 99.1875 140.910156 99.296875 C 140.167969 99.367188 139.894531 99.347656 139.640625 99.1875 C 139.535156 99.121094 139.453125 99.085938 139.367188 99.082031 Z M 139.367188 99.082031"/></g><g clip-path="url(#b)"><path fill="#F4B9E5" d="M 141.148438 122.554688 C 138.34375 122.550781 136.121094 124.496094 135.664062 127.453125 C 135.457031 128.777344 135.695312 129.945312 136.929688 133.585938 C 137.160156 134.261719 137.367188 134.90625 137.378906 135.023438 C 137.433594 135.539062 138.773438 137.929688 139.507812 138.804688 C 140.214844 139.648438 140.65625 140.554688 140.507812 140.890625 C 140.445312 141.039062 140.597656 142.785156 140.742188 143.585938 C 140.808594 143.949219 140.792969 144.605469 140.699219 145.042969 C 140.515625 145.925781 140.511719 146.632812 140.699219 147.003906 C 140.769531 147.136719 140.785156 147.324219 140.742188 147.417969 C 140.699219 147.515625 140.753906 147.722656 140.859375 147.878906 C 140.96875 148.03125 141.070312 148.519531 141.082031 148.964844 C 141.097656 149.410156 141.152344 149.820312 141.199219 149.890625 C 141.25 149.957031 141.292969 150.355469 141.308594 150.761719 C 141.320312 151.167969 141.417969 151.714844 141.519531 151.988281 C 141.917969 153.042969 141.992188 153.351562 142.03125 154.03125 C 142.054688 154.421875 142.148438 154.859375 142.246094 155.011719 C 142.339844 155.167969 142.382812 155.375 142.339844 155.46875 C 142.238281 155.699219 140.894531 156.539062 140.105469 156.867188 C 139.757812 157.007812 139.238281 157.324219 138.953125 157.558594 C 138.605469 157.84375 138.234375 157.984375 137.816406 158.003906 C 137.472656 158.023438 136.796875 158.230469 136.324219 158.464844 C 135.851562 158.695312 134.757812 159.175781 133.894531 159.515625 C 133.03125 159.859375 132.039062 160.296875 131.679688 160.507812 C 130.914062 160.957031 131.195312 161.117188 128.496094 158.761719 C 126.425781 156.953125 124.90625 155.847656 123.40625 155.023438 C 122.710938 154.644531 122.332031 154.324219 121.957031 153.832031 C 121.335938 153.019531 120.082031 152.242188 118.613281 151.765625 C 117.597656 151.433594 116.878906 151.007812 116.21875 150.328125 C 114.933594 149.003906 113.632812 148.242188 112.4375 148.132812 C 111.484375 148.046875 111.488281 148.042969 109.6875 146.449219 C 108.453125 145.359375 107.804688 144.699219 107.625 144.320312 C 107.292969 143.640625 106.945312 143.367188 106.089844 143.105469 C 105.390625 142.894531 104.058594 142.890625 103.617188 143.105469 C 103.324219 143.25 102.378906 142.890625 101.796875 142.414062 C 101.601562 142.25 101.183594 141.660156 100.871094 141.09375 C 100.558594 140.527344 100.277344 140.042969 100.242188 140.027344 C 100.210938 140.015625 99.871094 139.667969 99.507812 139.261719 C 99.144531 138.855469 98.414062 138.199219 97.878906 137.78125 C 97.34375 137.367188 96.300781 136.484375 95.558594 135.820312 C 93.707031 134.175781 91.15625 132.027344 89.699219 130.878906 C 89.03125 130.355469 87.871094 129.332031 87.121094 128.601562 C 85.597656 127.117188 84.539062 126.402344 82.511719 125.511719 C 79.4375 124.167969 76.816406 124.371094 74.632812 126.109375 C 73.808594 126.765625 73.761719 126.828125 73.160156 128.195312 C 72.167969 130.453125 72.433594 132.070312 74.152344 134.054688 C 75.027344 135.066406 75.03125 135.070312 77.175781 136.023438 C 79.242188 136.945312 79.933594 137.355469 80.742188 138.175781 C 81.191406 138.625 83.191406 139.789062 83.726562 139.910156 C 83.929688 139.957031 84.5 140.257812 84.992188 140.570312 C 88.5 142.800781 90.527344 143.921875 93.117188 145.054688 C 95.796875 146.230469 95.796875 146.226562 96.1875 147.527344 C 96.644531 149.050781 97.308594 150.316406 97.984375 150.945312 C 98.25 151.191406 98.523438 151.503906 98.59375 151.648438 C 99.003906 152.480469 101.792969 154.675781 105.078125 156.75 C 105.914062 157.277344 106.652344 157.757812 106.71875 157.824219 C 106.792969 157.894531 106.640625 158.460938 106.34375 159.242188 C 105.929688 160.332031 105.847656 160.699219 105.867188 161.605469 C 105.886719 162.679688 105.882812 162.679688 105.132812 163.203125 C 103.609375 164.257812 103.214844 164.808594 102.105469 167.28125 C 100.886719 170.007812 100.796875 170.65625 101.457031 172.425781 C 102.148438 174.273438 102.902344 175.050781 104.824219 175.90625 C 105.679688 176.289062 106.507812 176.738281 106.675781 176.910156 C 106.839844 177.078125 107.097656 177.277344 107.25 177.34375 C 107.664062 177.527344 107.832031 178.050781 107.632812 178.503906 C 107.488281 178.832031 107.222656 178.988281 106.144531 179.390625 C 103.484375 180.378906 102.988281 181.503906 103.929688 184.40625 C 104.230469 185.332031 104.292969 185.859375 104.214844 186.449219 C 104.066406 187.578125 104.105469 188.210938 104.332031 188.496094 C 104.441406 188.628906 104.5 188.820312 104.460938 188.910156 C 104.378906 189.097656 104.964844 190.300781 105.472656 190.996094 C 105.867188 191.542969 105.867188 191.558594 105.332031 192 C 104.644531 192.566406 103.835938 194.34375 103.746094 195.46875 C 103.617188 197.125 104.226562 198.976562 105.3125 200.230469 C 105.597656 200.558594 106.039062 201.132812 106.300781 201.507812 C 107.148438 202.726562 107.457031 202.949219 109.871094 204.011719 C 114.257812 205.945312 115.734375 206.464844 116.6875 206.429688 C 117.484375 206.398438 118.757812 205.898438 118.910156 205.546875 C 119.042969 205.242188 119.644531 205.1875 121 205.375 C 122.734375 205.613281 124.261719 205.5 124.980469 205.066406 C 125.15625 204.960938 125.679688 204.867188 126.144531 204.863281 C 126.605469 204.859375 127.359375 204.710938 127.816406 204.535156 C 128.441406 204.289062 128.75 204.253906 129.050781 204.382812 C 129.792969 204.710938 130.945312 204.871094 131.628906 204.746094 C 132.269531 204.628906 132.40625 204.65625 134.160156 205.363281 C 136.183594 206.179688 136.667969 206.25 138.398438 205.960938 C 139.1875 205.828125 139.394531 205.859375 141.234375 206.429688 C 145.003906 207.601562 145.550781 207.753906 146.375 207.8125 C 147.398438 207.886719 148.753906 207.585938 150.816406 206.832031 C 152.871094 206.085938 153.484375 205.558594 154.726562 203.480469 C 155.21875 202.652344 155.722656 201.816406 155.84375 201.617188 C 157.351562 199.09375 157.667969 197.273438 157.078125 194.523438 C 156.765625 193.0625 156.886719 192.296875 157.953125 189.25 C 158.296875 188.261719 158.769531 186.703125 158.996094 185.789062 C 159.476562 183.835938 159.910156 182.144531 160.253906 180.871094 C 160.484375 180.007812 160.511719 179.765625 160.519531 178.632812 C 160.519531 178.382812 160.617188 177.648438 160.722656 177.003906 C 161 175.304688 160.976562 173.492188 160.667969 172.542969 C 160.519531 172.085938 160.320312 171.304688 160.230469 170.816406 C 160.144531 170.332031 159.96875 169.746094 159.835938 169.507812 C 159.542969 168.964844 159.5 168.46875 159.6875 168.027344 C 159.894531 167.539062 159.679688 165.023438 159.359375 164.148438 C 159.210938 163.746094 159.097656 163.140625 159.101562 162.808594 C 159.109375 162.476562 159.050781 162.039062 158.976562 161.828125 C 158.898438 161.617188 158.863281 161.101562 158.890625 160.699219 C 158.917969 160.296875 158.867188 159.699219 158.785156 159.359375 C 158.699219 159.015625 158.667969 158.648438 158.707031 158.546875 C 158.75 158.449219 158.742188 158.222656 158.699219 158.039062 C 158.652344 157.855469 158.648438 157.636719 158.6875 157.546875 C 158.726562 157.457031 158.710938 157.097656 158.644531 156.757812 C 158.546875 156.238281 158.585938 155.664062 158.824219 153.863281 C 158.875 153.503906 158.136719 151.671875 157.644531 150.902344 C 157.203125 150.21875 156.425781 148.324219 155.683594 146.164062 C 155.25 144.898438 154.363281 143.523438 153.640625 142.980469 C 152.242188 141.929688 151.761719 140.960938 152.085938 139.878906 C 152.5 138.492188 152.339844 137.585938 151.5 136.515625 C 151.320312 136.285156 151.222656 135.960938 151.265625 135.714844 C 151.441406 134.695312 150.808594 131.679688 150.113281 130.230469 C 149.582031 129.121094 148.617188 127.679688 147.878906 126.917969 C 144.40625 123.34375 143.546875 122.742188 141.710938 122.574219 C 141.519531 122.558594 141.335938 122.554688 141.148438 122.554688 Z M 56.816406 146.089844 C 56.257812 146.117188 55.738281 146.214844 55.195312 146.375 C 52.386719 147.210938 51.328125 150.679688 53.085938 153.308594 C 53.878906 154.492188 54.355469 154.835938 56.292969 155.585938 C 57.203125 155.941406 58.84375 156.582031 59.933594 157.015625 C 61.027344 157.445312 62.390625 157.890625 62.96875 158.015625 C 63.550781 158.140625 64.496094 158.457031 65.066406 158.707031 C 65.953125 159.09375 68.957031 159.824219 69.402344 159.761719 C 69.46875 159.753906 70.589844 160.148438 71.894531 160.644531 C 73.902344 161.410156 74.40625 161.546875 75.121094 161.5625 C 76.128906 161.582031 79.285156 162.882812 81.265625 164.097656 C 82.226562 164.683594 82.636719 164.863281 84.152344 165.308594 C 85.125 165.597656 87.109375 166.320312 88.5625 166.90625 C 91.199219 167.976562 91.1875 167.96875 92.332031 167.835938 C 94.328125 167.597656 94.257812 167.652344 95.226562 165.90625 C 95.691406 165.066406 96.085938 164.371094 96.101562 164.363281 C 96.222656 164.300781 95.84375 163.742188 95.609375 163.636719 C 95.402344 163.546875 95.234375 163.171875 95.023438 162.316406 C 94.578125 160.507812 94.308594 160.277344 90.5625 158.621094 C 87.628906 157.324219 87.621094 157.335938 86.867188 157.417969 C 86.324219 157.480469 86.019531 157.4375 85.800781 157.269531 C 85.625 157.132812 85.25 157.027344 84.886719 157.015625 C 84.414062 156.996094 83.808594 156.792969 82.277344 156.121094 C 80.394531 155.296875 80.25 155.214844 79.808594 154.660156 C 79.339844 154.078125 79.289062 154.042969 76.238281 152.710938 C 74.539062 151.96875 72.066406 150.957031 70.742188 150.464844 C 69.421875 149.972656 66.605469 148.910156 64.480469 148.101562 C 60.496094 146.582031 58.484375 146.007812 56.816406 146.089844 Z M 57.304688 174.46875 C 55.796875 174.480469 53.960938 175.226562 52.257812 176.546875 C 51.355469 177.242188 50.660156 179.039062 50.863281 180.132812 C 51.203125 181.96875 52.804688 183.113281 55.792969 183.671875 C 56.523438 183.808594 57.785156 184.15625 58.605469 184.4375 C 60.273438 185.011719 60.9375 185.152344 62.417969 185.257812 C 63.367188 185.324219 63.953125 185.308594 66.046875 185.183594 C 66.488281 185.15625 68.222656 185.191406 69.902344 185.257812 C 71.585938 185.324219 73.304688 185.390625 73.726562 185.40625 C 74.148438 185.417969 75.417969 185.546875 76.546875 185.695312 C 78.808594 185.984375 82.425781 185.898438 84.269531 185.5 C 85.671875 185.199219 85.839844 185.195312 87.898438 185.363281 C 92.074219 185.707031 92.609375 185.667969 93.960938 184.9375 C 94.378906 184.710938 94.777344 184.386719 94.84375 184.234375 C 95.132812 183.582031 93.109375 180.664062 92.371094 180.667969 C 91.921875 180.667969 89.386719 180.417969 88.167969 180.25 C 87.503906 180.160156 87.292969 180.082031 87.082031 179.847656 C 86.75 179.484375 85.550781 179.242188 83.585938 179.15625 C 80.558594 179.023438 77.21875 178.59375 76.644531 178.261719 C 76.152344 177.972656 74.875 177.632812 73.226562 177.355469 C 72.90625 177.300781 71.972656 177.300781 71.148438 177.355469 C 69.652344 177.449219 69.65625 177.445312 67.890625 176.578125 C 65.0625 175.1875 61.3125 174.441406 57.304688 174.46875 Z M 96.070312 200.859375 C 94.320312 200.835938 92.5625 201.519531 90.582031 202.96875 C 89.863281 203.496094 89.113281 204.011719 88.921875 204.097656 C 88.269531 204.394531 86.476562 205.636719 85.652344 206.363281 C 85.199219 206.765625 84.570312 207.207031 84.257812 207.355469 C 83.945312 207.503906 83.453125 207.792969 83.160156 208.003906 C 82.867188 208.214844 82.464844 208.460938 82.277344 208.546875 C 82.089844 208.632812 81.484375 209.0625 80.933594 209.496094 C 79.503906 210.625 79.199219 210.777344 78.550781 210.675781 C 77.8125 210.5625 77.804688 210.578125 77.527344 211.667969 C 77.34375 212.390625 77.230469 212.644531 76.996094 212.828125 C 76.726562 213.039062 76.707031 213.128906 76.878906 213.746094 C 77.101562 214.558594 77.699219 215.0625 79.230469 215.734375 C 81.316406 216.648438 82.300781 216.425781 84.492188 214.511719 C 84.589844 214.425781 85.175781 214.292969 85.800781 214.214844 C 87.300781 214.019531 90.121094 212.972656 93.894531 211.21875 C 95.363281 210.539062 99.144531 209.546875 100.050781 209.601562 C 100.796875 209.644531 101.753906 209.300781 102.363281 208.761719 C 102.875 208.308594 103.359375 206.894531 103.308594 206.003906 C 103.21875 204.296875 101.167969 202.316406 98.476562 201.328125 C 97.660156 201.027344 96.863281 200.867188 96.066406 200.859375 Z M 96.070312 200.859375"/></g><path fill="#B0EBB0" d="M 261.433594 122.832031 C 260.949219 122.832031 260.351562 122.953125 259.546875 123.195312 C 257.367188 123.851562 256.773438 124.648438 256.34375 127.527344 C 256.324219 127.65625 255.96875 128.148438 255.542969 128.613281 C 254.527344 129.734375 253.046875 132.34375 251.304688 136.121094 C 250.628906 137.589844 248.390625 140.804688 247.664062 141.351562 C 247.066406 141.800781 246.5625 142.6875 246.449219 143.492188 C 246.351562 144.167969 246.898438 145.546875 247.515625 146.199219 C 248.691406 147.4375 251.53125 147.625 254.222656 146.632812 C 256.832031 145.671875 258.34375 143.746094 259.175781 140.277344 C 259.382812 139.40625 259.628906 138.527344 259.71875 138.339844 C 260.023438 137.6875 260.585938 135.582031 260.742188 134.492188 C 260.828125 133.894531 261.015625 133.136719 261.15625 132.820312 C 261.300781 132.503906 261.484375 131.96875 261.570312 131.617188 C 261.660156 131.269531 261.804688 130.828125 261.890625 130.636719 C 261.976562 130.449219 262.160156 129.75 262.296875 129.0625 C 262.652344 127.273438 262.792969 126.945312 263.351562 126.601562 C 263.984375 126.210938 263.984375 126.207031 263.488281 125.195312 C 263.160156 124.527344 263.085938 124.253906 263.148438 123.960938 C 263.21875 123.628906 263.164062 123.542969 262.636719 123.183594 C 262.289062 122.945312 261.917969 122.832031 261.433594 122.832031 Z M 302.015625 131.15625 C 300.933594 131.15625 299.667969 131.585938 298.183594 132.4375 C 297.539062 132.804688 296.347656 133.367188 295.542969 133.679688 C 293.898438 134.324219 293.300781 134.636719 292.101562 135.511719 C 291.332031 136.078125 290.898438 136.464844 289.386719 137.921875 C 289.070312 138.226562 287.71875 139.332031 286.394531 140.371094 C 285.070312 141.40625 283.722656 142.472656 283.390625 142.734375 C 283.0625 142.996094 282.015625 143.722656 281.058594 144.339844 C 279.148438 145.582031 276.457031 147.988281 275.308594 149.484375 C 274.433594 150.621094 274.304688 150.738281 272.625 151.945312 C 269.222656 154.386719 268.832031 154.761719 268.28125 156.195312 C 268.105469 156.640625 268.007812 157.140625 268.054688 157.300781 C 268.257812 157.988281 271.691406 158.902344 272.25 158.421875 C 272.59375 158.128906 274.6875 156.691406 275.722656 156.023438 C 276.285156 155.664062 276.507812 155.566406 276.820312 155.609375 C 277.308594 155.671875 278.378906 155.078125 279.929688 153.875 C 282.324219 152.011719 285.144531 150.1875 285.796875 150.070312 C 286.359375 149.972656 287.546875 149.394531 288.980469 148.539062 C 289.261719 148.371094 289.976562 147.769531 290.570312 147.195312 C 291.648438 146.152344 291.644531 146.15625 293.550781 145.671875 C 296.605469 144.902344 299.960938 143.039062 302.996094 140.421875 C 304.140625 139.4375 305.03125 137.6875 305.476562 135.578125 C 305.714844 134.460938 305.09375 132.648438 304.234375 131.945312 C 303.597656 131.429688 302.859375 131.160156 302.015625 131.15625 Z M 246.542969 151.328125 C 245.925781 151.359375 245.191406 151.554688 243.808594 151.96875 C 239.210938 153.335938 237.734375 153.902344 237.035156 154.542969 C 236.445312 155.085938 235.804688 156.285156 235.917969 156.652344 C 236.011719 156.96875 235.585938 157.398438 234.4375 158.132812 C 232.957031 159.078125 231.882812 160.15625 231.613281 160.957031 C 231.550781 161.148438 231.207031 161.546875 230.859375 161.851562 C 230.511719 162.152344 230.027344 162.769531 229.792969 163.203125 C 229.476562 163.792969 229.277344 164.011719 228.960938 164.105469 C 228.183594 164.339844 227.183594 164.964844 226.746094 165.503906 C 226.335938 166.011719 226.222656 166.066406 224.425781 166.664062 C 222.355469 167.351562 221.9375 167.621094 220.804688 168.964844 C 220.289062 169.574219 220.117188 169.675781 218.34375 170.433594 C 214.710938 171.984375 214.199219 172.234375 213.53125 172.722656 C 212.707031 173.328125 211.867188 174.421875 210.785156 176.332031 C 209.703125 178.234375 209.574219 179.035156 209.976562 181.421875 C 210.132812 182.375 210.296875 183.34375 210.335938 183.574219 C 210.824219 186.472656 211.757812 188.066406 213.988281 189.785156 C 215.175781 190.695312 215.566406 191.34375 216.726562 194.351562 C 217.101562 195.328125 217.765625 196.820312 218.183594 197.664062 C 219.085938 199.464844 219.847656 201.046875 220.410156 202.242188 C 220.792969 203.050781 220.917969 203.253906 221.648438 204.117188 C 221.808594 204.3125 222.226562 204.921875 222.5625 205.480469 C 223.453125 206.957031 224.640625 208.320312 225.492188 208.847656 C 225.898438 209.097656 226.546875 209.566406 226.929688 209.878906 C 227.3125 210.195312 227.824219 210.527344 228.078125 210.625 C 228.65625 210.847656 229.019531 211.1875 229.164062 211.648438 C 229.324219 212.152344 231.113281 213.9375 231.921875 214.394531 C 232.296875 214.605469 232.765625 214.988281 232.976562 215.246094 C 233.1875 215.503906 233.519531 215.808594 233.710938 215.917969 C 233.90625 216.027344 234.273438 216.378906 234.511719 216.707031 C 234.75 217.03125 235.183594 217.46875 235.46875 217.675781 C 235.753906 217.878906 236.011719 218.136719 236.042969 218.238281 C 236.078125 218.34375 236.230469 218.511719 236.386719 218.621094 C 236.539062 218.734375 236.6875 218.902344 236.714844 218.996094 C 236.742188 219.089844 236.980469 219.34375 237.246094 219.558594 C 237.660156 219.890625 238.011719 220.355469 238.996094 221.882812 C 239.191406 222.1875 240.941406 223.117188 241.816406 223.382812 C 242.59375 223.617188 244.410156 224.550781 246.375 225.714844 C 247.527344 226.398438 249.09375 226.867188 249.996094 226.8125 C 251.742188 226.707031 252.738281 227.132812 253.191406 228.164062 C 253.773438 229.492188 254.476562 230.085938 255.808594 230.359375 C 256.09375 230.417969 256.363281 230.601562 256.492188 230.816406 C 257.015625 231.707031 259.464844 233.601562 260.933594 234.257812 C 262.058594 234.757812 263.734375 235.21875 264.789062 235.320312 C 269.75 235.796875 270.789062 235.6875 272.292969 234.628906 C 274.816406 232.855469 275.410156 229.734375 273.742188 227.015625 C 273.039062 225.871094 272.101562 225.132812 268.800781 223.160156 C 268.1875 222.792969 267.621094 222.421875 267.535156 222.339844 C 267.160156 221.984375 264.589844 221.050781 263.464844 220.859375 C 262.378906 220.675781 261.453125 220.261719 261.347656 219.910156 C 261.300781 219.757812 260.050781 218.511719 259.417969 217.996094 C 259.132812 217.761719 258.726562 217.25 258.515625 216.855469 C 258.085938 216.0625 257.621094 215.523438 257.238281 215.363281 C 257.097656 215.304688 256.957031 215.179688 256.925781 215.078125 C 256.898438 214.976562 256.734375 214.859375 256.554688 214.808594 C 256.375 214.761719 255.96875 214.449219 255.671875 214.117188 C 255.371094 213.789062 255.070312 213.5 254.988281 213.480469 C 254.910156 213.457031 254.613281 213.207031 254.339844 212.902344 C 254.066406 212.601562 253.636719 212.246094 253.382812 212.105469 C 252.394531 211.558594 252.148438 211.375 251.675781 210.878906 C 251.410156 210.601562 251.050781 210.320312 250.878906 210.261719 C 250.707031 210.207031 250.535156 210.085938 250.507812 209.984375 C 250.433594 209.746094 250.914062 208.222656 251.304688 207.460938 C 251.476562 207.128906 251.675781 206.558594 251.742188 206.195312 C 251.820312 205.753906 252.011719 205.398438 252.316406 205.109375 C 252.566406 204.871094 252.9375 204.28125 253.148438 203.796875 C 253.355469 203.316406 253.882812 202.253906 254.320312 201.433594 C 254.753906 200.613281 255.222656 199.621094 255.363281 199.230469 C 255.65625 198.390625 255.335938 198.449219 258.917969 198.496094 C 261.667969 198.53125 263.546875 198.414062 265.222656 198.070312 C 265.996094 197.910156 266.492188 197.894531 267.097656 198.027344 C 268.09375 198.242188 269.542969 198.027344 270.972656 197.441406 C 271.960938 197.035156 272.796875 196.890625 273.742188 196.984375 C 275.578125 197.160156 277.0625 196.898438 278.046875 196.207031 C 278.828125 195.65625 278.820312 195.648438 281.21875 195.695312 C 282.867188 195.726562 283.804688 195.824219 284.191406 195.992188 C 284.878906 196.296875 285.308594 196.285156 286.128906 195.929688 C 286.800781 195.636719 287.820312 194.769531 288.011719 194.320312 C 288.144531 194.019531 289.101562 193.671875 289.855469 193.660156 C 290.113281 193.65625 290.816406 193.847656 291.421875 194.074219 C 292.027344 194.304688 292.558594 194.480469 292.59375 194.46875 C 292.628906 194.460938 293.097656 194.511719 293.636719 194.585938 C 294.175781 194.660156 295.164062 194.691406 295.839844 194.660156 C 296.519531 194.628906 297.882812 194.628906 298.875 194.652344 C 301.351562 194.707031 304.691406 194.703125 306.542969 194.628906 C 307.390625 194.597656 308.941406 194.621094 309.984375 194.695312 C 312.105469 194.839844 313.367188 194.691406 315.488281 194.054688 C 318.703125 193.089844 320.585938 191.234375 321.121094 188.496094 C 321.324219 187.464844 321.316406 187.382812 320.886719 185.949219 C 320.183594 183.585938 318.925781 182.546875 316.332031 182.148438 C 315.007812 181.945312 315.003906 181.933594 312.75 182.597656 C 310.582031 183.234375 309.800781 183.367188 308.652344 183.265625 C 308.019531 183.210938 305.71875 183.621094 305.234375 183.875 C 305.046875 183.972656 304.425781 184.113281 303.847656 184.191406 C 299.734375 184.765625 297.464844 185.222656 294.753906 186.035156 C 291.953125 186.875 291.960938 186.878906 290.824219 186.140625 C 289.488281 185.277344 288.148438 184.746094 287.226562 184.703125 C 286.863281 184.6875 286.453125 184.617188 286.308594 184.554688 C 285.453125 184.1875 281.921875 184.328125 278.078125 184.875 C 277.097656 185.015625 276.222656 185.125 276.128906 185.121094 C 276.027344 185.113281 275.769531 184.585938 275.488281 183.800781 C 275.101562 182.699219 274.917969 182.371094 274.320312 181.691406 C 273.605469 180.886719 273.605469 180.882812 273.839844 179.996094 C 274.3125 178.207031 274.265625 177.519531 273.507812 174.917969 C 272.675781 172.050781 272.3125 171.511719 270.664062 170.59375 C 268.945312 169.632812 267.882812 169.515625 265.863281 170.105469 C 264.960938 170.367188 264.023438 170.574219 263.785156 170.550781 C 263.550781 170.527344 263.230469 170.546875 263.074219 170.59375 C 262.640625 170.722656 262.171875 170.441406 262.027344 169.964844 C 261.925781 169.621094 262.03125 169.308594 262.59375 168.304688 C 263.980469 165.828125 263.636719 164.65625 261.039062 163.054688 C 260.207031 162.542969 259.808594 162.191406 259.484375 161.691406 C 258.867188 160.734375 258.425781 160.269531 258.066406 160.199219 C 257.898438 160.167969 257.742188 160.070312 257.714844 159.976562 C 257.65625 159.78125 256.414062 159.230469 255.574219 159.027344 C 254.921875 158.871094 254.921875 158.867188 255.042969 158.1875 C 255.199219 157.308594 254.660156 155.417969 254 154.503906 C 253.027344 153.160156 251.371094 152.144531 249.730469 151.894531 C 249.300781 151.828125 248.585938 151.679688 248.140625 151.5625 C 247.605469 151.421875 247.21875 151.339844 246.8125 151.328125 C 246.726562 151.328125 246.632812 151.324219 246.542969 151.328125 Z M 318.332031 153.574219 C 317.730469 153.601562 317.070312 153.789062 316 154.160156 C 315.074219 154.480469 313.40625 155.046875 312.292969 155.425781 C 311.179688 155.804688 309.84375 156.347656 309.320312 156.628906 C 308.796875 156.910156 307.882812 157.289062 307.285156 157.472656 C 306.363281 157.75 303.605469 159.128906 303.304688 159.464844 C 303.257812 159.515625 302.140625 159.945312 300.824219 160.410156 C 298.800781 161.128906 298.332031 161.34375 297.777344 161.796875 C 296.996094 162.433594 293.746094 163.480469 291.453125 163.839844 C 290.335938 164.015625 289.914062 164.148438 288.46875 164.789062 C 287.542969 165.199219 285.570312 165.9375 284.082031 166.425781 C 281.378906 167.320312 281.375 167.328125 280.589844 168.175781 C 279.21875 169.644531 279.25 169.550781 279.640625 171.507812 C 279.828125 172.449219 279.976562 173.238281 279.972656 173.253906 C 279.917969 173.378906 280.582031 173.5625 280.824219 173.488281 C 281.039062 173.421875 281.410156 173.601562 282.121094 174.117188 C 283.636719 175.207031 283.988281 175.199219 287.914062 174.03125 C 290.992188 173.117188 290.984375 173.125 291.503906 172.574219 C 291.878906 172.175781 292.136719 172 292.410156 171.988281 C 292.632812 171.976562 292.988281 171.816406 293.273438 171.59375 C 293.644531 171.300781 294.238281 171.074219 295.839844 170.589844 C 297.804688 170 297.972656 169.957031 298.671875 170.089844 C 299.402344 170.234375 299.457031 170.230469 302.644531 169.269531 C 304.421875 168.734375 306.972656 167.898438 308.296875 167.417969 C 309.625 166.9375 312.460938 165.929688 314.601562 165.171875 C 319.960938 163.273438 321.5625 162.355469 322.792969 160.464844 C 324.390625 158.007812 322.9375 154.683594 319.894531 153.820312 C 319.382812 153.671875 318.992188 153.585938 318.585938 153.574219 C 318.5 153.570312 318.417969 153.570312 318.332031 153.574219 Z M 318.332031 153.574219"/><path fill="#A4D8E6" d="M 134.808594 208.207031 C 134.074219 208.203125 132.804688 208.339844 132.148438 208.527344 C 131.367188 208.75 129.339844 208.957031 127.054688 209.039062 C 125.71875 209.089844 124.132812 209.527344 123.402344 210.0625 C 121.992188 211.09375 120.925781 211.292969 119.984375 210.667969 C 118.777344 209.867188 117.855469 209.75 116.589844 210.242188 C 116.316406 210.347656 115.992188 210.34375 115.769531 210.230469 C 114.84375 209.765625 111.777344 209.496094 110.1875 209.742188 C 108.96875 209.929688 107.316406 210.4375 106.375 210.925781 C 101.945312 213.210938 101.117188 213.859375 100.421875 215.566406 C 99.261719 218.425781 100.457031 221.371094 103.328125 222.757812 C 104.539062 223.339844 105.71875 223.457031 109.558594 223.332031 C 110.273438 223.308594 110.953125 223.308594 111.070312 223.332031 C 111.578125 223.429688 114.261719 222.820312 115.308594 222.371094 C 116.320312 221.941406 117.320312 221.78125 117.597656 222.019531 C 117.722656 222.125 119.429688 222.492188 120.242188 222.585938 C 120.605469 222.628906 121.230469 222.847656 121.625 223.066406 C 122.414062 223.5 123.089844 223.691406 123.5 223.617188 C 123.648438 223.59375 123.835938 223.625 123.914062 223.695312 C 123.996094 223.761719 124.214844 223.773438 124.394531 223.714844 C 124.570312 223.65625 125.0625 223.707031 125.492188 223.820312 C 125.921875 223.9375 126.335938 224.015625 126.417969 223.992188 C 126.496094 223.964844 126.886719 224.023438 127.28125 224.128906 C 127.671875 224.234375 128.226562 224.308594 128.515625 224.289062 C 129.640625 224.214844 129.949219 224.226562 130.613281 224.386719 C 130.992188 224.476562 131.441406 224.515625 131.613281 224.472656 C 131.789062 224.425781 132.003906 224.445312 132.082031 224.511719 C 132.273438 224.675781 132.679688 226.207031 132.765625 227.058594 C 132.800781 227.433594 132.941406 228.027344 133.082031 228.367188 C 133.253906 228.78125 133.300781 229.175781 133.199219 229.582031 C 133.117188 229.917969 133.117188 230.617188 133.199219 231.136719 C 133.285156 231.65625 133.421875 232.832031 133.5 233.757812 C 133.574219 234.683594 133.710938 235.769531 133.808594 236.175781 C 134.015625 237.039062 134.246094 236.808594 131.210938 238.710938 C 128.878906 240.167969 127.375 241.304688 126.152344 242.5 C 125.585938 243.054688 125.175781 243.328125 124.597656 243.542969 C 123.640625 243.902344 122.542969 244.875 121.65625 246.144531 C 121.046875 247.019531 120.414062 247.570312 119.570312 248.007812 C 117.929688 248.851562 116.828125 249.886719 116.375 251 C 116.015625 251.882812 116.023438 251.882812 113.980469 253.140625 C 112.574219 254.003906 111.742188 254.425781 111.328125 254.492188 C 110.582031 254.609375 110.21875 254.855469 109.71875 255.597656 C 109.3125 256.207031 108.925781 257.492188 109.003906 257.972656 C 109.058594 258.296875 108.4375 259.101562 107.8125 259.519531 C 107.597656 259.660156 106.914062 259.886719 106.277344 260.019531 C 105.644531 260.152344 105.097656 260.289062 105.074219 260.316406 C 105.050781 260.34375 104.632812 260.554688 104.136719 260.785156 C 103.644531 261.015625 102.785156 261.523438 102.230469 261.914062 C 101.679688 262.308594 100.535156 263.046875 99.6875 263.566406 C 97.574219 264.859375 94.785156 266.675781 93.265625 267.738281 C 92.570312 268.226562 91.253906 269.035156 90.335938 269.539062 C 88.472656 270.566406 87.484375 271.378906 86.046875 273.066406 C 83.863281 275.613281 83.28125 278.179688 84.308594 280.773438 C 84.695312 281.75 84.75 281.824219 85.886719 282.796875 C 87.757812 284.402344 89.386719 284.613281 91.785156 283.542969 C 93.007812 283 93.003906 282.988281 94.542969 281.210938 C 96.023438 279.5 96.621094 278.972656 97.640625 278.433594 C 98.203125 278.136719 99.90625 276.554688 100.175781 276.078125 C 100.28125 275.894531 100.734375 275.4375 101.175781 275.054688 C 104.328125 272.347656 105.972656 270.730469 107.8125 268.582031 C 109.710938 266.359375 109.714844 266.363281 111.070312 266.367188 C 112.664062 266.371094 114.074219 266.105469 114.871094 265.640625 C 115.1875 265.457031 115.570312 265.285156 115.726562 265.257812 C 116.640625 265.105469 119.539062 263.082031 122.476562 260.539062 C 123.222656 259.894531 123.894531 259.328125 123.976562 259.285156 C 124.070312 259.234375 124.5625 259.527344 125.222656 260.039062 C 126.148438 260.753906 126.492188 260.933594 127.363281 261.179688 C 128.398438 261.472656 128.390625 261.476562 128.675781 262.351562 C 129.242188 264.113281 129.65625 264.671875 131.699219 266.453125 C 133.953125 268.410156 134.554688 268.667969 136.4375 268.550781 C 138.40625 268.425781 139.351562 267.945312 140.730469 266.355469 C 141.347656 265.644531 142.03125 264.972656 142.242188 264.863281 C 142.453125 264.753906 142.710938 264.5625 142.816406 264.4375 C 143.109375 264.097656 143.664062 264.074219 144.042969 264.394531 C 144.3125 264.628906 144.386719 264.9375 144.457031 266.089844 C 144.632812 268.921875 145.558594 269.734375 148.609375 269.679688 C 149.585938 269.660156 150.109375 269.738281 150.65625 269.988281 C 151.691406 270.457031 152.308594 270.601562 152.644531 270.464844 C 152.808594 270.402344 153 270.402344 153.074219 270.464844 C 153.226562 270.597656 154.558594 270.398438 155.371094 270.113281 C 156.007812 269.894531 156.023438 269.894531 156.289062 270.53125 C 156.632812 271.351562 158.101562 272.644531 159.152344 273.054688 C 160.695312 273.65625 162.640625 273.613281 164.160156 272.9375 C 164.554688 272.761719 165.234375 272.503906 165.671875 272.363281 C 167.078125 271.90625 167.382812 271.675781 169.101562 269.679688 C 172.226562 266.039062 173.160156 264.773438 173.402344 263.851562 C 173.605469 263.078125 173.492188 261.730469 173.199219 261.476562 C 172.949219 261.261719 173.066406 260.664062 173.636719 259.421875 C 174.371094 257.828125 174.703125 256.339844 174.5 255.523438 C 174.449219 255.324219 174.519531 254.796875 174.648438 254.351562 C 174.777344 253.910156 174.847656 253.148438 174.808594 252.660156 C 174.753906 251.992188 174.808594 251.683594 175.019531 251.433594 C 175.546875 250.816406 176.050781 249.757812 176.128906 249.070312 C 176.203125 248.421875 176.261719 248.296875 177.449219 246.824219 C 178.816406 245.125 179.023438 244.6875 179.25 242.949219 C 179.351562 242.15625 179.433594 241.964844 180.515625 240.371094 C 182.734375 237.101562 183.039062 236.617188 183.339844 235.84375 C 183.707031 234.890625 183.808594 233.511719 183.6875 231.316406 C 183.570312 229.132812 183.242188 228.394531 181.613281 226.601562 C 180.964844 225.886719 180.3125 225.15625 180.152344 224.980469 C 178.175781 222.808594 176.527344 221.980469 173.722656 221.746094 C 172.230469 221.617188 171.554688 221.273438 168.949219 219.371094 C 168.105469 218.75 166.734375 217.859375 165.925781 217.378906 C 164.195312 216.351562 162.703125 215.4375 161.582031 214.738281 C 160.824219 214.261719 160.605469 214.167969 159.527344 213.832031 C 159.285156 213.757812 158.597656 213.460938 158.011719 213.171875 C 156.464844 212.410156 154.734375 211.90625 153.734375 211.925781 C 153.253906 211.933594 152.457031 211.898438 151.964844 211.839844 C 151.472656 211.78125 150.855469 211.773438 150.589844 211.828125 C 149.984375 211.953125 149.5 211.871094 149.132812 211.5625 C 148.726562 211.226562 146.246094 210.691406 145.320312 210.742188 C 144.890625 210.769531 144.285156 210.707031 143.96875 210.605469 C 143.648438 210.5 143.210938 210.421875 142.988281 210.433594 C 142.765625 210.445312 142.269531 210.335938 141.890625 210.191406 C 141.511719 210.046875 140.921875 209.917969 140.570312 209.902344 C 140.21875 209.882812 139.867188 209.8125 139.78125 209.742188 C 139.699219 209.671875 139.46875 209.613281 139.28125 209.605469 C 139.09375 209.59375 138.886719 209.527344 138.8125 209.464844 C 138.738281 209.402344 138.390625 209.320312 138.046875 209.285156 C 137.519531 209.226562 136.972656 209.027344 135.320312 208.273438 C 135.238281 208.234375 135.054688 208.210938 134.808594 208.207031 Z M 127.054688 271.292969 C 126.855469 271.304688 126.457031 271.460938 126.332031 271.605469 C 126.183594 271.777344 125.773438 271.820312 124.894531 271.773438 C 123.035156 271.675781 122.730469 271.875 120.058594 274.980469 C 117.964844 277.410156 117.972656 277.40625 117.832031 278.152344 C 117.734375 278.6875 117.609375 278.976562 117.386719 279.132812 C 117.203125 279.261719 116.992188 279.589844 116.875 279.933594 C 116.722656 280.378906 116.34375 280.90625 115.257812 282.179688 C 113.921875 283.742188 113.808594 283.84375 113.148438 284.105469 C 112.457031 284.382812 112.402344 284.429688 110.242188 286.960938 C 109.035156 288.371094 107.347656 290.4375 106.492188 291.5625 C 105.636719 292.683594 103.804688 295.066406 102.414062 296.863281 C 98.933594 301.359375 98.082031 303 98.070312 305.257812 C 98.050781 308.1875 101.070312 310.199219 104.097656 309.28125 C 105.457031 308.867188 105.921875 308.507812 107.207031 306.875 C 107.808594 306.105469 108.890625 304.726562 109.625 303.808594 C 110.355469 302.886719 111.199219 301.71875 111.488281 301.199219 C 111.773438 300.679688 112.328125 299.851562 112.734375 299.378906 C 113.359375 298.644531 114.929688 296 115 295.554688 C 115.011719 295.484375 115.722656 294.527344 116.578125 293.425781 C 117.890625 291.726562 118.164062 291.292969 118.386719 290.613281 C 118.699219 289.652344 120.871094 287 122.605469 285.457031 C 123.449219 284.710938 123.726562 284.371094 124.597656 283.050781 C 125.15625 282.207031 126.421875 280.511719 127.40625 279.292969 C 129.199219 277.078125 129.183594 277.082031 129.390625 275.949219 C 129.742188 273.96875 129.777344 274.058594 128.386719 272.625 C 127.71875 271.9375 127.175781 271.367188 127.171875 271.347656 C 127.167969 271.3125 127.125 271.292969 127.054688 271.292969 Z M 168.441406 276.460938 C 166.828125 276.484375 164.734375 277.800781 163.222656 279.804688 C 161.546875 282.023438 161.320312 284.457031 162.5 287.824219 C 162.792969 288.667969 163.066406 289.535156 163.09375 289.738281 C 163.191406 290.453125 163.863281 292.53125 164.320312 293.53125 C 164.570312 294.082031 164.824219 294.816406 164.875 295.160156 C 164.925781 295.503906 165.054688 296.066406 165.171875 296.40625 C 165.289062 296.746094 165.398438 297.179688 165.425781 297.386719 C 165.457031 297.589844 165.695312 298.300781 165.949219 298.953125 C 166.617188 300.648438 166.667969 300.980469 166.386719 301.570312 C 166.0625 302.242188 166.074219 302.269531 167.035156 302.847656 C 167.675781 303.234375 167.886719 303.421875 167.992188 303.703125 C 168.117188 304.019531 168.207031 304.046875 168.847656 304.0625 C 169.691406 304.085938 170.347656 303.664062 171.433594 302.390625 C 172.914062 300.660156 172.96875 299.65625 171.773438 297.003906 C 171.722656 296.886719 171.765625 296.28125 171.871094 295.660156 C 172.121094 294.167969 171.9375 291.1875 171.359375 287.066406 C 171.132812 285.464844 171.28125 281.539062 171.59375 280.6875 C 171.851562 279.984375 171.792969 278.976562 171.453125 278.238281 C 171.171875 277.617188 169.96875 276.746094 169.101562 276.535156 C 168.894531 276.484375 168.671875 276.457031 168.441406 276.460938 Z M 145.257812 278.195312 C 144.121094 278.234375 141.851562 279.058594 141.679688 279.632812 C 141.550781 280.0625 140.585938 282.417969 140.070312 283.539062 C 139.792969 284.148438 139.644531 284.34375 139.359375 284.476562 C 138.914062 284.6875 138.339844 285.757812 137.6875 287.609375 C 136.679688 290.46875 135.296875 293.535156 134.8125 293.988281 C 134.394531 294.375 133.703125 295.503906 132.957031 297 C 132.8125 297.289062 132.539062 298.179688 132.351562 298.984375 C 132.007812 300.441406 132.003906 300.441406 130.65625 301.878906 C 128.503906 304.179688 126.703125 307.558594 125.566406 311.398438 C 125.140625 312.84375 125.335938 314.816406 126.097656 316.832031 C 126.503906 317.898438 128.007812 319.082031 129.113281 319.207031 C 130.964844 319.414062 132.535156 318.21875 133.9375 315.523438 C 134.28125 314.859375 134.972656 313.753906 135.480469 313.050781 C 136.515625 311.621094 136.84375 311.027344 137.375 309.644531 C 137.71875 308.753906 137.871094 308.179688 138.355469 306.140625 C 138.457031 305.710938 138.996094 304.066406 139.550781 302.476562 C 140.101562 300.886719 140.671875 299.253906 140.804688 298.855469 C 140.941406 298.457031 141.425781 297.285156 141.890625 296.246094 C 142.828125 294.167969 143.800781 290.683594 143.957031 288.800781 C 144.078125 287.375 144.113281 287.210938 144.875 285.289062 C 146.414062 281.394531 146.535156 280.871094 146.226562 279.367188 C 146.128906 278.898438 145.949219 278.421875 145.820312 278.3125 C 145.71875 278.226562 145.519531 278.1875 145.257812 278.195312 Z M 145.257812 278.195312"/><g clip-path="url(#c)"><path fill="#E48A85" d="M 213.785156 210.988281 C 212.835938 211 212.019531 211.289062 210.664062 211.964844 C 209.804688 212.398438 208.925781 212.851562 208.714844 212.957031 C 206.089844 214.273438 204.84375 215.632812 203.859375 218.269531 C 203.335938 219.671875 202.816406 220.238281 200.28125 222.230469 C 199.460938 222.878906 198.238281 223.945312 197.554688 224.597656 C 196.101562 225.984375 194.816406 227.167969 193.839844 228.058594 C 193.179688 228.660156 193.027344 228.863281 192.414062 229.816406 C 192.273438 230.027344 191.8125 230.585938 191.378906 231.070312 C 190.230469 232.355469 189.277344 233.90625 189.027344 234.875 C 188.90625 235.339844 188.648438 236.085938 188.460938 236.546875 C 188.273438 237.003906 188.105469 237.59375 188.089844 237.867188 C 188.046875 238.480469 187.824219 238.925781 187.429688 239.195312 C 186.992188 239.496094 185.816406 241.742188 185.617188 242.648438 C 185.527344 243.066406 185.292969 243.636719 185.105469 243.914062 C 184.921875 244.191406 184.730469 244.601562 184.679688 244.820312 C 184.632812 245.039062 184.398438 245.476562 184.160156 245.800781 C 183.917969 246.125 183.632812 246.667969 183.519531 247.003906 C 183.410156 247.335938 183.246094 247.652344 183.15625 247.714844 C 183.070312 247.777344 182.953125 247.972656 182.890625 248.152344 C 182.832031 248.332031 182.707031 248.515625 182.625 248.566406 C 182.542969 248.621094 182.378906 248.941406 182.253906 249.261719 C 182.054688 249.753906 181.707031 250.214844 180.539062 251.601562 C 180.304688 251.878906 179.925781 253.832031 179.929688 254.746094 C 179.933594 255.558594 179.582031 257.5625 179.046875 259.78125 C 178.734375 261.085938 178.730469 262.726562 179.046875 263.574219 C 179.664062 265.210938 179.570312 266.289062 178.71875 267.023438 C 177.621094 267.96875 177.253906 268.820312 177.386719 270.175781 C 177.414062 270.464844 177.332031 270.777344 177.164062 270.964844 C 176.464844 271.730469 175.375 274.617188 175.179688 276.214844 C 175.035156 277.4375 175.085938 279.171875 175.296875 280.207031 C 176.304688 285.089844 176.695312 286.054688 178.152344 287.183594 C 180.589844 289.074219 183.753906 288.726562 185.863281 286.332031 C 186.75 285.324219 187.183594 284.207031 188.097656 280.472656 C 188.269531 279.777344 188.449219 279.132812 188.503906 279.027344 C 188.734375 278.5625 188.875 275.820312 188.726562 274.691406 C 188.582031 273.601562 188.699219 272.59375 189.003906 272.390625 C 189.136719 272.300781 189.953125 270.75 190.261719 269.996094 C 190.398438 269.652344 190.765625 269.101562 191.082031 268.78125 C 191.710938 268.136719 192.09375 267.542969 192.136719 267.128906 C 192.148438 266.980469 192.226562 266.816406 192.316406 266.757812 C 192.40625 266.699219 192.472656 266.496094 192.464844 266.308594 C 192.457031 266.125 192.632812 265.660156 192.859375 265.277344 C 193.085938 264.894531 193.269531 264.507812 193.265625 264.425781 C 193.261719 264.339844 193.429688 263.988281 193.636719 263.636719 C 193.84375 263.289062 194.066406 262.769531 194.125 262.488281 C 194.359375 261.382812 194.453125 261.09375 194.785156 260.496094 C 194.976562 260.15625 195.136719 259.726562 195.136719 259.546875 C 195.140625 259.367188 195.210938 259.167969 195.296875 259.109375 C 195.507812 258.972656 197.109375 258.992188 197.949219 259.144531 C 198.320312 259.207031 198.917969 259.230469 199.28125 259.1875 C 199.726562 259.132812 200.117188 259.191406 200.484375 259.398438 C 200.785156 259.566406 201.464844 259.757812 201.984375 259.8125 C 202.507812 259.871094 203.671875 260.0625 204.585938 260.238281 C 205.496094 260.414062 206.585938 260.574219 207 260.589844 C 207.890625 260.625 207.738281 260.328125 208.75 263.765625 C 209.523438 266.402344 210.195312 268.171875 211.015625 269.675781 C 211.394531 270.367188 211.558594 270.824219 211.613281 271.441406 C 211.699219 272.460938 212.335938 273.796875 213.316406 274.988281 C 213.996094 275.8125 214.363281 276.5625 214.550781 277.492188 C 214.921875 279.296875 215.625 280.632812 216.574219 281.367188 C 217.332031 281.953125 217.332031 281.957031 217.992188 284.265625 C 218.445312 285.851562 218.636719 286.765625 218.589844 287.183594 C 218.5 287.933594 218.636719 288.347656 219.214844 289.027344 C 219.691406 289.582031 220.820312 290.292969 221.304688 290.347656 C 221.628906 290.382812 222.242188 291.207031 222.476562 291.921875 C 222.554688 292.164062 222.589844 292.894531 222.550781 293.539062 C 222.507812 294.1875 222.488281 294.734375 222.507812 294.765625 C 222.527344 294.796875 222.613281 295.261719 222.699219 295.796875 C 222.785156 296.335938 223.054688 297.289062 223.285156 297.929688 C 223.515625 298.566406 223.917969 299.867188 224.191406 300.824219 C 224.867188 303.210938 225.855469 306.390625 226.46875 308.140625 C 226.75 308.941406 227.179688 310.425781 227.417969 311.441406 C 227.902344 313.515625 228.410156 314.691406 229.640625 316.535156 C 231.511719 319.320312 233.832031 320.5625 236.605469 320.273438 C 237.652344 320.160156 237.738281 320.132812 238.980469 319.300781 C 241.03125 317.933594 241.664062 316.425781 241.28125 313.828125 C 241.085938 312.503906 241.085938 312.496094 239.792969 310.539062 C 238.542969 308.652344 238.195312 307.9375 237.949219 306.808594 C 237.816406 306.191406 236.746094 304.132812 236.363281 303.742188 C 236.214844 303.59375 235.894531 303.027344 235.648438 302.496094 C 233.890625 298.734375 232.773438 296.710938 231.199219 294.359375 C 229.570312 291.933594 229.582031 291.929688 229.953125 290.625 C 230.386719 289.089844 230.492188 287.660156 230.261719 286.769531 C 230.167969 286.417969 230.117188 286 230.132812 285.839844 C 230.230469 284.917969 229.0625 281.582031 227.40625 278.066406 C 226.984375 277.171875 226.628906 276.371094 226.609375 276.277344 C 226.585938 276.179688 227.003906 275.785156 227.671875 275.289062 C 228.609375 274.59375 228.871094 274.3125 229.34375 273.542969 C 229.90625 272.625 229.910156 272.628906 230.824219 272.59375 C 232.675781 272.519531 233.3125 272.273438 235.574219 270.785156 C 238.070312 269.140625 238.492188 268.636719 238.886719 266.789062 C 239.296875 264.863281 239.085938 263.816406 237.929688 262.0625 C 237.410156 261.277344 236.953125 260.441406 236.90625 260.207031 C 236.859375 259.976562 236.730469 259.664062 236.640625 259.527344 C 236.390625 259.152344 236.523438 258.632812 236.9375 258.355469 C 237.234375 258.15625 237.558594 258.15625 238.683594 258.398438 C 241.457031 258.992188 242.484375 258.316406 243.253906 255.363281 C 243.5 254.417969 243.71875 253.925781 244.105469 253.46875 C 244.839844 252.597656 245.144531 252.050781 245.105469 251.6875 C 245.089844 251.515625 245.140625 251.328125 245.222656 251.273438 C 245.390625 251.160156 245.542969 249.832031 245.488281 248.972656 C 245.449219 248.300781 245.453125 248.28125 246.140625 248.195312 C 247.023438 248.085938 248.664062 247.03125 249.34375 246.128906 C 250.339844 244.804688 250.820312 242.917969 250.578125 241.273438 C 250.515625 240.84375 250.460938 240.113281 250.441406 239.65625 C 250.382812 238.175781 250.230469 237.832031 248.769531 235.640625 C 246.109375 231.648438 245.136719 230.402344 244.316406 229.921875 C 243.628906 229.515625 242.296875 229.269531 241.976562 229.484375 C 241.699219 229.667969 241.164062 229.378906 240.121094 228.496094 C 238.785156 227.359375 237.4375 226.644531 236.597656 226.621094 C 236.390625 226.613281 235.902344 226.417969 235.511719 226.171875 C 235.117188 225.929688 234.394531 225.648438 233.914062 225.554688 C 233.253906 225.425781 232.988281 225.296875 232.804688 225.023438 C 232.355469 224.347656 231.457031 223.578125 230.816406 223.320312 C 230.207031 223.074219 230.113281 222.972656 229.015625 221.433594 C 227.746094 219.660156 227.382812 219.351562 225.765625 218.664062 C 225.03125 218.351562 224.871094 218.207031 223.625 216.738281 C 221.074219 213.722656 220.703125 213.300781 220.039062 212.808594 C 219.21875 212.195312 217.921875 211.71875 215.777344 211.242188 C 214.976562 211.066406 214.355469 210.980469 213.785156 210.988281 Z M 258.246094 235.628906 C 258.152344 235.625 258.050781 235.636719 257.960938 235.640625 C 257.855469 235.644531 257.75 235.644531 257.652344 235.660156 C 256.976562 235.769531 255.8125 236.703125 255.371094 237.480469 C 254.53125 238.96875 255.199219 241.738281 256.9375 244.019531 C 258.625 246.230469 260.917969 247.101562 264.476562 246.875 C 265.371094 246.816406 266.273438 246.792969 266.480469 246.820312 C 267.191406 246.921875 269.363281 246.84375 270.453125 246.671875 C 271.050781 246.578125 271.832031 246.542969 272.175781 246.585938 C 272.519531 246.632812 273.09375 246.640625 273.453125 246.621094 C 273.8125 246.601562 274.273438 246.613281 274.476562 246.640625 C 274.683594 246.667969 275.421875 246.636719 276.117188 246.566406 C 277.929688 246.382812 278.277344 246.410156 278.769531 246.84375 C 279.328125 247.335938 279.335938 247.335938 280.152344 246.566406 C 280.695312 246.054688 280.941406 245.902344 281.238281 245.875 C 281.578125 245.84375 281.636719 245.761719 281.824219 245.148438 C 282.074219 244.34375 281.839844 243.601562 280.910156 242.210938 C 279.640625 240.320312 278.699219 239.984375 275.820312 240.421875 C 275.691406 240.441406 275.121094 240.242188 274.550781 239.972656 C 273.183594 239.332031 270.25 238.695312 266.128906 238.140625 C 264.527344 237.929688 260.78125 236.726562 260.046875 236.195312 C 259.582031 235.859375 258.902344 235.648438 258.246094 235.628906 Z M 251.582031 260.265625 C 251.230469 260.269531 250.917969 260.3125 250.816406 260.382812 C 250.21875 260.777344 250.351562 264.332031 250.972656 264.726562 C 251.355469 264.96875 253.355469 266.527344 254.296875 267.324219 C 254.808594 267.757812 254.957031 267.953125 255.011719 268.261719 C 255.09375 268.746094 255.96875 269.605469 257.578125 270.734375 C 260.0625 272.472656 262.640625 274.625 262.945312 275.214844 C 263.207031 275.722656 264.097656 276.695312 265.339844 277.816406 C 265.582031 278.03125 266.375 278.523438 267.097656 278.921875 C 268.410156 279.644531 268.410156 279.648438 269.429688 281.328125 C 271.066406 284.023438 273.820312 286.675781 277.214844 288.804688 C 278.492188 289.605469 280.445312 289.957031 282.59375 289.761719 C 283.726562 289.660156 285.273438 288.527344 285.691406 287.496094 C 286.390625 285.765625 285.675781 283.9375 283.457031 281.863281 C 282.910156 281.351562 282.011719 280.378906 281.472656 279.699219 C 280.375 278.316406 279.90625 277.847656 278.714844 276.964844 C 277.949219 276.394531 277.441406 276.085938 275.605469 275.066406 C 275.222656 274.855469 273.773438 273.886719 272.390625 272.925781 C 271.007812 271.964844 269.597656 270.980469 269.25 270.742188 C 268.902344 270.503906 267.898438 269.714844 267.023438 268.988281 C 265.273438 267.527344 262.1875 265.671875 260.421875 265.015625 C 259.078125 264.515625 258.925781 264.421875 257.277344 263.171875 C 253.945312 260.640625 253.464844 260.382812 251.933594 260.277344 C 251.8125 260.265625 251.699219 260.261719 251.582031 260.265625 Z M 242.359375 274.90625 C 241.9375 274.917969 241.523438 275.15625 240.644531 275.632812 C 239.800781 276.089844 239.097656 276.460938 239.078125 276.460938 C 238.945312 276.449219 238.96875 277.136719 239.109375 277.347656 C 239.238281 277.535156 239.167969 277.941406 238.886719 278.773438 C 238.292969 280.539062 238.40625 280.871094 240.675781 284.277344 C 242.453125 286.949219 242.445312 286.957031 243.125 287.292969 C 243.617188 287.53125 243.84375 287.730469 243.933594 287.984375 C 244.011719 288.195312 244.277344 288.480469 244.574219 288.6875 C 244.964844 288.957031 245.355469 289.460938 246.289062 290.851562 C 247.433594 292.554688 247.523438 292.710938 247.597656 293.417969 C 247.679688 294.15625 247.703125 294.210938 249.558594 296.972656 C 250.59375 298.515625 252.125 300.691406 252.976562 301.820312 C 253.828125 302.945312 255.636719 305.363281 256.992188 307.1875 C 260.382812 311.75 261.722656 313.007812 263.890625 313.628906 C 266.710938 314.4375 269.46875 312.074219 269.398438 308.910156 C 269.367188 307.488281 269.15625 306.957031 267.929688 305.28125 C 267.351562 304.492188 266.308594 303.058594 265.617188 302.105469 C 264.929688 301.15625 264.015625 300.042969 263.59375 299.625 C 263.171875 299.207031 262.546875 298.4375 262.199219 297.921875 C 261.660156 297.121094 259.519531 294.894531 259.109375 294.707031 C 259.046875 294.675781 258.316406 293.738281 257.480469 292.617188 C 256.199219 290.894531 255.851562 290.503906 255.253906 290.105469 C 254.414062 289.542969 252.460938 286.761719 251.441406 284.671875 C 250.949219 283.660156 250.6875 283.289062 249.652344 282.097656 C 248.988281 281.332031 247.707031 279.65625 246.800781 278.378906 C 245.148438 276.058594 245.144531 276.058594 244.105469 275.558594 C 243.199219 275.121094 242.78125 274.898438 242.359375 274.90625 Z M 242.359375 274.90625"/></g></svg>